<mxfile host="app.diagrams.net" agent="Mozilla/5.0 (X11; Ubuntu; Linux x86_64; rv:130.0) Gecko/20100101 Firefox/130.0" version="24.7.14">
  <diagram name="Page-1" id="7JUlOLAG2HHJasWKr80s">
    <mxGraphModel dx="1364" dy="758" grid="1" gridSize="10" guides="1" tooltips="1" connect="1" arrows="1" fold="1" page="1" pageScale="1" pageWidth="850" pageHeight="1100" math="0" shadow="0">
      <root>
        <mxCell id="0" />
        <mxCell id="1" parent="0" />
        <mxCell id="LDeescWShafQm50kmnUS-1" value="" style="shape=callout;whiteSpace=wrap;html=1;perimeter=calloutPerimeter;direction=south;dashed=1;" vertex="1" parent="1">
          <mxGeometry x="1310" y="50" width="300" height="550" as="geometry" />
        </mxCell>
        <mxCell id="LDeescWShafQm50kmnUS-2" value="" style="rounded=1;whiteSpace=wrap;html=1;dashed=1;fillColor=#e1d5e7;strokeColor=#9673a6;" vertex="1" parent="1">
          <mxGeometry x="480" y="320" width="560" height="90" as="geometry" />
        </mxCell>
        <mxCell id="LDeescWShafQm50kmnUS-3" value="" style="rounded=1;whiteSpace=wrap;html=1;dashed=1;fillColor=#e1d5e7;strokeColor=#9673a6;" vertex="1" parent="1">
          <mxGeometry x="280" y="640" width="980" height="80" as="geometry" />
        </mxCell>
        <mxCell id="LDeescWShafQm50kmnUS-4" value="" style="rounded=1;whiteSpace=wrap;html=1;dashed=1;fillColor=#e1d5e7;strokeColor=#9673a6;" vertex="1" parent="1">
          <mxGeometry x="400" y="480" width="720" height="80" as="geometry" />
        </mxCell>
        <mxCell id="LDeescWShafQm50kmnUS-5" value="" style="rounded=1;whiteSpace=wrap;html=1;dashed=1;fillColor=#f8cecc;strokeColor=#b85450;" vertex="1" parent="1">
          <mxGeometry x="512.8" y="170" width="500" height="80" as="geometry" />
        </mxCell>
        <mxCell id="LDeescWShafQm50kmnUS-6" value="" style="image;sketch=0;aspect=fixed;html=1;points=[];align=center;fontSize=12;image=img/lib/mscae/Clock.svg;" vertex="1" parent="1">
          <mxGeometry x="612.8" y="180" width="50" height="50" as="geometry" />
        </mxCell>
        <mxCell id="LDeescWShafQm50kmnUS-7" value="" style="image;sketch=0;aspect=fixed;html=1;points=[];align=center;fontSize=12;image=img/lib/mscae/Clock.svg;" vertex="1" parent="1">
          <mxGeometry x="742.8" y="180" width="50" height="50" as="geometry" />
        </mxCell>
        <mxCell id="LDeescWShafQm50kmnUS-8" value="" style="image;sketch=0;aspect=fixed;html=1;points=[];align=center;fontSize=12;image=img/lib/mscae/Clock.svg;" vertex="1" parent="1">
          <mxGeometry x="862.8" y="180" width="50" height="50" as="geometry" />
        </mxCell>
        <mxCell id="LDeescWShafQm50kmnUS-9" value="" style="image;points=[];aspect=fixed;html=1;align=center;shadow=0;dashed=0;image=img/lib/allied_telesis/computer_and_terminals/Personal_Computer.svg;" vertex="1" parent="1">
          <mxGeometry x="500" y="490" width="45.6" height="61.800000000000004" as="geometry" />
        </mxCell>
        <mxCell id="LDeescWShafQm50kmnUS-10" value="" style="image;points=[];aspect=fixed;html=1;align=center;shadow=0;dashed=0;image=img/lib/allied_telesis/computer_and_terminals/Personal_Computer.svg;" vertex="1" parent="1">
          <mxGeometry x="654.4" y="490" width="45.6" height="61.800000000000004" as="geometry" />
        </mxCell>
        <mxCell id="LDeescWShafQm50kmnUS-11" value="" style="image;points=[];aspect=fixed;html=1;align=center;shadow=0;dashed=0;image=img/lib/allied_telesis/computer_and_terminals/Personal_Computer.svg;" vertex="1" parent="1">
          <mxGeometry x="822" y="490" width="45.6" height="61.800000000000004" as="geometry" />
        </mxCell>
        <mxCell id="LDeescWShafQm50kmnUS-12" value="" style="image;points=[];aspect=fixed;html=1;align=center;shadow=0;dashed=0;image=img/lib/allied_telesis/computer_and_terminals/Personal_Computer.svg;" vertex="1" parent="1">
          <mxGeometry x="980" y="490" width="45.6" height="61.800000000000004" as="geometry" />
        </mxCell>
        <mxCell id="LDeescWShafQm50kmnUS-13" value="" style="image;points=[];aspect=fixed;html=1;align=center;shadow=0;dashed=0;image=img/lib/allied_telesis/computer_and_terminals/Personal_Computer.svg;" vertex="1" parent="1">
          <mxGeometry x="500" y="650" width="45.6" height="61.800000000000004" as="geometry" />
        </mxCell>
        <mxCell id="LDeescWShafQm50kmnUS-14" value="" style="image;points=[];aspect=fixed;html=1;align=center;shadow=0;dashed=0;image=img/lib/allied_telesis/computer_and_terminals/Personal_Computer.svg;" vertex="1" parent="1">
          <mxGeometry x="654.4" y="650" width="45.6" height="61.800000000000004" as="geometry" />
        </mxCell>
        <mxCell id="LDeescWShafQm50kmnUS-15" value="" style="image;points=[];aspect=fixed;html=1;align=center;shadow=0;dashed=0;image=img/lib/allied_telesis/computer_and_terminals/Personal_Computer.svg;" vertex="1" parent="1">
          <mxGeometry x="822" y="650" width="45.6" height="61.800000000000004" as="geometry" />
        </mxCell>
        <mxCell id="LDeescWShafQm50kmnUS-16" value="" style="image;points=[];aspect=fixed;html=1;align=center;shadow=0;dashed=0;image=img/lib/allied_telesis/computer_and_terminals/Personal_Computer.svg;" vertex="1" parent="1">
          <mxGeometry x="980" y="650" width="45.6" height="61.800000000000004" as="geometry" />
        </mxCell>
        <mxCell id="LDeescWShafQm50kmnUS-17" value="" style="image;points=[];aspect=fixed;html=1;align=center;shadow=0;dashed=0;image=img/lib/allied_telesis/computer_and_terminals/Personal_Computer.svg;" vertex="1" parent="1">
          <mxGeometry x="1120" y="650" width="45.6" height="61.800000000000004" as="geometry" />
        </mxCell>
        <mxCell id="LDeescWShafQm50kmnUS-18" value="" style="image;points=[];aspect=fixed;html=1;align=center;shadow=0;dashed=0;image=img/lib/allied_telesis/computer_and_terminals/Personal_Computer.svg;" vertex="1" parent="1">
          <mxGeometry x="380" y="650" width="45.6" height="61.800000000000004" as="geometry" />
        </mxCell>
        <mxCell id="LDeescWShafQm50kmnUS-19" value="" style="endArrow=classic;html=1;rounded=0;entryX=0.855;entryY=0.032;entryDx=0;entryDy=0;entryPerimeter=0;exitX=0.439;exitY=0.969;exitDx=0;exitDy=0;exitPerimeter=0;" edge="1" parent="1" source="LDeescWShafQm50kmnUS-42" target="LDeescWShafQm50kmnUS-9">
          <mxGeometry width="50" height="50" relative="1" as="geometry">
            <mxPoint x="580" y="360" as="sourcePoint" />
            <mxPoint x="950" y="470" as="targetPoint" />
          </mxGeometry>
        </mxCell>
        <mxCell id="LDeescWShafQm50kmnUS-20" value="" style="endArrow=classic;html=1;rounded=0;entryX=0.518;entryY=0.032;entryDx=0;entryDy=0;entryPerimeter=0;exitX=0.526;exitY=1.002;exitDx=0;exitDy=0;exitPerimeter=0;" edge="1" parent="1" source="LDeescWShafQm50kmnUS-43" target="LDeescWShafQm50kmnUS-10">
          <mxGeometry width="50" height="50" relative="1" as="geometry">
            <mxPoint x="720" y="350" as="sourcePoint" />
            <mxPoint x="764.5" y="477" as="targetPoint" />
          </mxGeometry>
        </mxCell>
        <mxCell id="LDeescWShafQm50kmnUS-21" value="" style="endArrow=classic;html=1;rounded=0;entryX=0.132;entryY=0.065;entryDx=0;entryDy=0;entryPerimeter=0;exitX=0.482;exitY=0.937;exitDx=0;exitDy=0;exitPerimeter=0;" edge="1" parent="1" source="LDeescWShafQm50kmnUS-44" target="LDeescWShafQm50kmnUS-12">
          <mxGeometry width="50" height="50" relative="1" as="geometry">
            <mxPoint x="885" y="350" as="sourcePoint" />
            <mxPoint x="884.5" y="480" as="targetPoint" />
          </mxGeometry>
        </mxCell>
        <mxCell id="LDeescWShafQm50kmnUS-22" value="" style="endArrow=classic;startArrow=classic;html=1;rounded=0;" edge="1" parent="1" source="LDeescWShafQm50kmnUS-9" target="LDeescWShafQm50kmnUS-10">
          <mxGeometry width="50" height="50" relative="1" as="geometry">
            <mxPoint x="900" y="520" as="sourcePoint" />
            <mxPoint x="950" y="470" as="targetPoint" />
          </mxGeometry>
        </mxCell>
        <mxCell id="LDeescWShafQm50kmnUS-23" value="" style="endArrow=classic;startArrow=classic;html=1;rounded=0;" edge="1" parent="1">
          <mxGeometry width="50" height="50" relative="1" as="geometry">
            <mxPoint x="711" y="519.5" as="sourcePoint" />
            <mxPoint x="819" y="519.5" as="targetPoint" />
          </mxGeometry>
        </mxCell>
        <mxCell id="LDeescWShafQm50kmnUS-24" value="" style="endArrow=classic;startArrow=classic;html=1;rounded=0;" edge="1" parent="1">
          <mxGeometry width="50" height="50" relative="1" as="geometry">
            <mxPoint x="872" y="520.4" as="sourcePoint" />
            <mxPoint x="980" y="520.4" as="targetPoint" />
          </mxGeometry>
        </mxCell>
        <mxCell id="LDeescWShafQm50kmnUS-25" value="" style="endArrow=classic;html=1;rounded=0;exitX=0.307;exitY=1.003;exitDx=0;exitDy=0;exitPerimeter=0;entryX=0.636;entryY=0.032;entryDx=0;entryDy=0;entryPerimeter=0;" edge="1" parent="1" source="LDeescWShafQm50kmnUS-9" target="LDeescWShafQm50kmnUS-18">
          <mxGeometry width="50" height="50" relative="1" as="geometry">
            <mxPoint x="900" y="520" as="sourcePoint" />
            <mxPoint x="950" y="470" as="targetPoint" />
          </mxGeometry>
        </mxCell>
        <mxCell id="LDeescWShafQm50kmnUS-26" value="" style="endArrow=classic;html=1;rounded=0;entryX=0.417;entryY=0.049;entryDx=0;entryDy=0;entryPerimeter=0;exitX=0.461;exitY=0.937;exitDx=0;exitDy=0;exitPerimeter=0;" edge="1" parent="1" source="LDeescWShafQm50kmnUS-44" target="LDeescWShafQm50kmnUS-11">
          <mxGeometry width="50" height="50" relative="1" as="geometry">
            <mxPoint x="870" y="350" as="sourcePoint" />
            <mxPoint x="950" y="470" as="targetPoint" />
          </mxGeometry>
        </mxCell>
        <mxCell id="LDeescWShafQm50kmnUS-27" value="" style="endArrow=classic;html=1;rounded=0;entryX=0.496;entryY=0.016;entryDx=0;entryDy=0;entryPerimeter=0;exitX=0.482;exitY=0.985;exitDx=0;exitDy=0;exitPerimeter=0;" edge="1" parent="1" source="LDeescWShafQm50kmnUS-42" target="LDeescWShafQm50kmnUS-10">
          <mxGeometry width="50" height="50" relative="1" as="geometry">
            <mxPoint x="590" y="400" as="sourcePoint" />
            <mxPoint x="950" y="470" as="targetPoint" />
          </mxGeometry>
        </mxCell>
        <mxCell id="LDeescWShafQm50kmnUS-28" value="" style="endArrow=classic;startArrow=classic;html=1;rounded=0;entryX=0.022;entryY=0.469;entryDx=0;entryDy=0;entryPerimeter=0;" edge="1" parent="1" target="LDeescWShafQm50kmnUS-13">
          <mxGeometry width="50" height="50" relative="1" as="geometry">
            <mxPoint x="430" y="679" as="sourcePoint" />
            <mxPoint x="950" y="470" as="targetPoint" />
          </mxGeometry>
        </mxCell>
        <mxCell id="LDeescWShafQm50kmnUS-29" value="" style="endArrow=classic;startArrow=classic;html=1;rounded=0;exitX=0.987;exitY=0.469;exitDx=0;exitDy=0;exitPerimeter=0;entryX=0.022;entryY=0.469;entryDx=0;entryDy=0;entryPerimeter=0;" edge="1" parent="1" source="LDeescWShafQm50kmnUS-13">
          <mxGeometry width="50" height="50" relative="1" as="geometry">
            <mxPoint x="580" y="680.5" as="sourcePoint" />
            <mxPoint x="651" y="679.5" as="targetPoint" />
          </mxGeometry>
        </mxCell>
        <mxCell id="LDeescWShafQm50kmnUS-30" value="" style="endArrow=classic;startArrow=classic;html=1;rounded=0;exitX=0.987;exitY=0.469;exitDx=0;exitDy=0;exitPerimeter=0;entryX=0.022;entryY=0.469;entryDx=0;entryDy=0;entryPerimeter=0;" edge="1" parent="1">
          <mxGeometry width="50" height="50" relative="1" as="geometry">
            <mxPoint x="712" y="680.4" as="sourcePoint" />
            <mxPoint x="818" y="680.9" as="targetPoint" />
          </mxGeometry>
        </mxCell>
        <mxCell id="LDeescWShafQm50kmnUS-31" value="" style="endArrow=classic;startArrow=classic;html=1;rounded=0;exitX=0.987;exitY=0.469;exitDx=0;exitDy=0;exitPerimeter=0;entryX=0.022;entryY=0.469;entryDx=0;entryDy=0;entryPerimeter=0;" edge="1" parent="1">
          <mxGeometry width="50" height="50" relative="1" as="geometry">
            <mxPoint x="874" y="680.4" as="sourcePoint" />
            <mxPoint x="980" y="680.9" as="targetPoint" />
          </mxGeometry>
        </mxCell>
        <mxCell id="LDeescWShafQm50kmnUS-32" value="" style="endArrow=classic;startArrow=classic;html=1;rounded=0;exitX=0.987;exitY=0.469;exitDx=0;exitDy=0;exitPerimeter=0;" edge="1" parent="1">
          <mxGeometry width="50" height="50" relative="1" as="geometry">
            <mxPoint x="1025.6" y="680.4" as="sourcePoint" />
            <mxPoint x="1120" y="681" as="targetPoint" />
          </mxGeometry>
        </mxCell>
        <mxCell id="LDeescWShafQm50kmnUS-33" value="" style="endArrow=classic;html=1;rounded=0;exitX=0.496;exitY=0.939;exitDx=0;exitDy=0;exitPerimeter=0;entryX=0.482;entryY=0.032;entryDx=0;entryDy=0;entryPerimeter=0;" edge="1" parent="1" source="LDeescWShafQm50kmnUS-10" target="LDeescWShafQm50kmnUS-13">
          <mxGeometry width="50" height="50" relative="1" as="geometry">
            <mxPoint x="900" y="520" as="sourcePoint" />
            <mxPoint x="950" y="470" as="targetPoint" />
          </mxGeometry>
        </mxCell>
        <mxCell id="LDeescWShafQm50kmnUS-34" value="" style="endArrow=classic;html=1;rounded=0;exitX=0.526;exitY=1.003;exitDx=0;exitDy=0;exitPerimeter=0;entryX=0.496;entryY=0;entryDx=0;entryDy=0;entryPerimeter=0;" edge="1" parent="1" source="LDeescWShafQm50kmnUS-11" target="LDeescWShafQm50kmnUS-14">
          <mxGeometry width="50" height="50" relative="1" as="geometry">
            <mxPoint x="900" y="520" as="sourcePoint" />
            <mxPoint x="950" y="470" as="targetPoint" />
          </mxGeometry>
        </mxCell>
        <mxCell id="LDeescWShafQm50kmnUS-35" value="" style="endArrow=classic;html=1;rounded=0;exitX=0.526;exitY=0.955;exitDx=0;exitDy=0;exitPerimeter=0;entryX=0.504;entryY=0;entryDx=0;entryDy=0;entryPerimeter=0;" edge="1" parent="1" source="LDeescWShafQm50kmnUS-12" target="LDeescWShafQm50kmnUS-15">
          <mxGeometry width="50" height="50" relative="1" as="geometry">
            <mxPoint x="900" y="520" as="sourcePoint" />
            <mxPoint x="950" y="470" as="targetPoint" />
          </mxGeometry>
        </mxCell>
        <mxCell id="LDeescWShafQm50kmnUS-36" value="" style="endArrow=classic;html=1;rounded=0;exitX=0.658;exitY=0.971;exitDx=0;exitDy=0;exitPerimeter=0;entryX=0.57;entryY=-0.065;entryDx=0;entryDy=0;entryPerimeter=0;" edge="1" parent="1" source="LDeescWShafQm50kmnUS-12" target="LDeescWShafQm50kmnUS-17">
          <mxGeometry width="50" height="50" relative="1" as="geometry">
            <mxPoint x="900" y="520" as="sourcePoint" />
            <mxPoint x="950" y="470" as="targetPoint" />
          </mxGeometry>
        </mxCell>
        <mxCell id="LDeescWShafQm50kmnUS-37" value="" style="endArrow=classic;html=1;rounded=0;exitX=0.658;exitY=0.987;exitDx=0;exitDy=0;exitPerimeter=0;entryX=0.526;entryY=0;entryDx=0;entryDy=0;entryPerimeter=0;" edge="1" parent="1" source="LDeescWShafQm50kmnUS-11" target="LDeescWShafQm50kmnUS-16">
          <mxGeometry width="50" height="50" relative="1" as="geometry">
            <mxPoint x="900" y="520" as="sourcePoint" />
            <mxPoint x="950" y="470" as="targetPoint" />
          </mxGeometry>
        </mxCell>
        <mxCell id="LDeescWShafQm50kmnUS-38" value="Stratum 0" style="text;html=1;align=center;verticalAlign=middle;whiteSpace=wrap;rounded=0;" vertex="1" parent="1">
          <mxGeometry x="512.8" y="170" width="60" height="30" as="geometry" />
        </mxCell>
        <mxCell id="LDeescWShafQm50kmnUS-39" value="Stratum 2" style="text;html=1;align=center;verticalAlign=middle;whiteSpace=wrap;rounded=0;" vertex="1" parent="1">
          <mxGeometry x="400" y="480" width="60" height="30" as="geometry" />
        </mxCell>
        <mxCell id="LDeescWShafQm50kmnUS-40" value="Stratum 3" style="text;html=1;align=center;verticalAlign=middle;whiteSpace=wrap;rounded=0;" vertex="1" parent="1">
          <mxGeometry x="280" y="640" width="60" height="30" as="geometry" />
        </mxCell>
        <mxCell id="LDeescWShafQm50kmnUS-41" value="Stratum 1" style="text;html=1;align=center;verticalAlign=middle;whiteSpace=wrap;rounded=0;" vertex="1" parent="1">
          <mxGeometry x="480" y="320" width="60" height="30" as="geometry" />
        </mxCell>
        <mxCell id="LDeescWShafQm50kmnUS-42" value="" style="image;points=[];aspect=fixed;html=1;align=center;shadow=0;dashed=0;image=img/lib/allied_telesis/computer_and_terminals/Personal_Computer.svg;" vertex="1" parent="1">
          <mxGeometry x="610" y="339.1" width="45.6" height="61.800000000000004" as="geometry" />
        </mxCell>
        <mxCell id="LDeescWShafQm50kmnUS-43" value="" style="image;points=[];aspect=fixed;html=1;align=center;shadow=0;dashed=0;image=img/lib/allied_telesis/computer_and_terminals/Personal_Computer.svg;" vertex="1" parent="1">
          <mxGeometry x="740" y="339.1" width="45.6" height="61.800000000000004" as="geometry" />
        </mxCell>
        <mxCell id="LDeescWShafQm50kmnUS-44" value="" style="image;points=[];aspect=fixed;html=1;align=center;shadow=0;dashed=0;image=img/lib/allied_telesis/computer_and_terminals/Personal_Computer.svg;" vertex="1" parent="1">
          <mxGeometry x="860" y="339.1" width="45.6" height="61.800000000000004" as="geometry" />
        </mxCell>
        <mxCell id="LDeescWShafQm50kmnUS-45" value="" style="endArrow=classic;html=1;rounded=0;exitX=0.524;exitY=1.04;exitDx=0;exitDy=0;exitPerimeter=0;entryX=0.636;entryY=-0.018;entryDx=0;entryDy=0;entryPerimeter=0;" edge="1" parent="1" source="LDeescWShafQm50kmnUS-6" target="LDeescWShafQm50kmnUS-42">
          <mxGeometry width="50" height="50" relative="1" as="geometry">
            <mxPoint x="900" y="460" as="sourcePoint" />
            <mxPoint x="950" y="410" as="targetPoint" />
          </mxGeometry>
        </mxCell>
        <mxCell id="LDeescWShafQm50kmnUS-46" value="" style="endArrow=classic;html=1;rounded=0;exitX=0.524;exitY=1.04;exitDx=0;exitDy=0;exitPerimeter=0;entryX=0.636;entryY=-0.018;entryDx=0;entryDy=0;entryPerimeter=0;" edge="1" parent="1">
          <mxGeometry width="50" height="50" relative="1" as="geometry">
            <mxPoint x="767.3" y="230" as="sourcePoint" />
            <mxPoint x="767.3" y="336" as="targetPoint" />
          </mxGeometry>
        </mxCell>
        <mxCell id="LDeescWShafQm50kmnUS-47" value="" style="endArrow=classic;html=1;rounded=0;exitX=0.524;exitY=1.04;exitDx=0;exitDy=0;exitPerimeter=0;entryX=0.636;entryY=-0.018;entryDx=0;entryDy=0;entryPerimeter=0;" edge="1" parent="1">
          <mxGeometry width="50" height="50" relative="1" as="geometry">
            <mxPoint x="887.3" y="230" as="sourcePoint" />
            <mxPoint x="887.3" y="336" as="targetPoint" />
          </mxGeometry>
        </mxCell>
        <mxCell id="LDeescWShafQm50kmnUS-48" value="Very precise clock: atomic clock, GPS, radio clock" style="text;html=1;align=center;verticalAlign=middle;whiteSpace=wrap;rounded=0;fillColor=#fff2cc;strokeColor=#d6b656;" vertex="1" parent="1">
          <mxGeometry x="50" y="175" width="160" height="60" as="geometry" />
        </mxCell>
        <mxCell id="LDeescWShafQm50kmnUS-49" value="Computers directly attached to stratum 0 devices&lt;br&gt;May peer with other Stratum-1 devices for sanity check" style="text;html=1;align=center;verticalAlign=middle;whiteSpace=wrap;rounded=0;fillColor=#fff2cc;strokeColor=#d6b656;" vertex="1" parent="1">
          <mxGeometry x="40" y="330" width="180" height="70" as="geometry" />
        </mxCell>
        <mxCell id="LDeescWShafQm50kmnUS-50" value="" style="endArrow=classic;startArrow=classic;html=1;rounded=0;entryX=-0.022;entryY=0.5;entryDx=0;entryDy=0;entryPerimeter=0;exitX=0.321;exitY=0.556;exitDx=0;exitDy=0;exitPerimeter=0;" edge="1" parent="1" source="LDeescWShafQm50kmnUS-2" target="LDeescWShafQm50kmnUS-43">
          <mxGeometry width="50" height="50" relative="1" as="geometry">
            <mxPoint x="480" y="460" as="sourcePoint" />
            <mxPoint x="530" y="410" as="targetPoint" />
          </mxGeometry>
        </mxCell>
        <mxCell id="LDeescWShafQm50kmnUS-51" value="" style="endArrow=classic;startArrow=classic;html=1;rounded=0;entryX=-0.022;entryY=0.5;entryDx=0;entryDy=0;entryPerimeter=0;exitX=0.321;exitY=0.556;exitDx=0;exitDy=0;exitPerimeter=0;" edge="1" parent="1">
          <mxGeometry width="50" height="50" relative="1" as="geometry">
            <mxPoint x="785.6" y="369.5" as="sourcePoint" />
            <mxPoint x="864.6" y="369.5" as="targetPoint" />
          </mxGeometry>
        </mxCell>
        <mxCell id="LDeescWShafQm50kmnUS-52" value="Computers synchronized over a network to Stratum-1 devices over a network&lt;br&gt;May peer with other Stratum-1 devices for sanity check" style="text;html=1;align=center;verticalAlign=middle;whiteSpace=wrap;rounded=0;fillColor=#fff2cc;strokeColor=#d6b656;" vertex="1" parent="1">
          <mxGeometry x="40" y="478.4" width="180" height="85" as="geometry" />
        </mxCell>
        <mxCell id="LDeescWShafQm50kmnUS-53" value="Computers synchronized over a network to Stratum-2 devices over a network&lt;br&gt;May peer with other Stratum-1 devices for sanity check" style="text;html=1;align=center;verticalAlign=middle;whiteSpace=wrap;rounded=0;fillColor=#fff2cc;strokeColor=#d6b656;" vertex="1" parent="1">
          <mxGeometry x="40" y="637.5" width="180" height="85" as="geometry" />
        </mxCell>
        <mxCell id="LDeescWShafQm50kmnUS-54" value="&lt;font style=&quot;font-size: 18px;&quot;&gt;How NTP Works in a Nutshell&lt;/font&gt;" style="text;html=1;align=center;verticalAlign=middle;whiteSpace=wrap;rounded=0;fillColor=#ffe6cc;strokeColor=#d79b00;" vertex="1" parent="1">
          <mxGeometry x="600" y="40" width="320" height="60" as="geometry" />
        </mxCell>
        <mxCell id="LDeescWShafQm50kmnUS-55" value="" style="html=1;shadow=0;dashed=0;align=center;verticalAlign=middle;shape=mxgraph.arrows2.uTurnArrow;dy=11;arrowHead=43;dx2=25;direction=east;fillColor=#d5e8d4;strokeColor=#82b366;" vertex="1" parent="1">
          <mxGeometry x="1130" y="297.5" width="62.8" height="120" as="geometry" />
        </mxCell>
        <mxCell id="LDeescWShafQm50kmnUS-56" value="" style="html=1;shadow=0;dashed=0;align=center;verticalAlign=middle;shape=mxgraph.arrows2.uTurnArrow;dy=11;arrowHead=43;dx2=25;direction=west;fillColor=#d5e8d4;strokeColor=#82b366;" vertex="1" parent="1">
          <mxGeometry x="1220" y="307.5" width="62.8" height="120" as="geometry" />
        </mxCell>
        <mxCell id="LDeescWShafQm50kmnUS-57" value="&lt;font style=&quot;font-size: 18px;&quot;&gt;Periodic synchronization&lt;/font&gt;" style="text;html=1;align=center;verticalAlign=middle;whiteSpace=wrap;rounded=0;fillColor=#d5e8d4;strokeColor=#82b366;" vertex="1" parent="1">
          <mxGeometry x="1090" y="235" width="210" height="55" as="geometry" />
        </mxCell>
        <mxCell id="LDeescWShafQm50kmnUS-58" value="Selection &amp;amp; Cluster" style="rounded=0;whiteSpace=wrap;html=1;dashed=1;" vertex="1" parent="1">
          <mxGeometry x="1420" y="220" width="120" height="60" as="geometry" />
        </mxCell>
        <mxCell id="LDeescWShafQm50kmnUS-59" value="Combine" style="rounded=0;whiteSpace=wrap;html=1;dashed=1;" vertex="1" parent="1">
          <mxGeometry x="1420" y="320" width="120" height="60" as="geometry" />
        </mxCell>
        <mxCell id="LDeescWShafQm50kmnUS-60" value="PLL" style="rounded=0;whiteSpace=wrap;html=1;dashed=1;" vertex="1" parent="1">
          <mxGeometry x="1420" y="420" width="120" height="60" as="geometry" />
        </mxCell>
        <mxCell id="LDeescWShafQm50kmnUS-61" value="" style="endArrow=classic;html=1;rounded=0;exitX=0.5;exitY=1;exitDx=0;exitDy=0;entryX=0.5;entryY=0;entryDx=0;entryDy=0;dashed=1;" edge="1" parent="1" source="LDeescWShafQm50kmnUS-58" target="LDeescWShafQm50kmnUS-59">
          <mxGeometry width="50" height="50" relative="1" as="geometry">
            <mxPoint x="1120" y="440" as="sourcePoint" />
            <mxPoint x="1170" y="390" as="targetPoint" />
          </mxGeometry>
        </mxCell>
        <mxCell id="LDeescWShafQm50kmnUS-62" value="" style="endArrow=classic;html=1;rounded=0;exitX=0.5;exitY=1;exitDx=0;exitDy=0;dashed=1;" edge="1" parent="1" source="LDeescWShafQm50kmnUS-59" target="LDeescWShafQm50kmnUS-60">
          <mxGeometry width="50" height="50" relative="1" as="geometry">
            <mxPoint x="1120" y="440" as="sourcePoint" />
            <mxPoint x="1170" y="390" as="targetPoint" />
          </mxGeometry>
        </mxCell>
        <mxCell id="LDeescWShafQm50kmnUS-63" value="" style="shape=message;html=1;html=1;outlineConnect=0;labelPosition=center;verticalLabelPosition=bottom;align=center;verticalAlign=top;" vertex="1" parent="1">
          <mxGeometry x="1445" y="120" width="70" height="40" as="geometry" />
        </mxCell>
        <mxCell id="LDeescWShafQm50kmnUS-64" value="NTP message exchange using UDP" style="text;html=1;align=center;verticalAlign=middle;whiteSpace=wrap;rounded=0;" vertex="1" parent="1">
          <mxGeometry x="1490" y="70" width="120" height="40" as="geometry" />
        </mxCell>
        <mxCell id="LDeescWShafQm50kmnUS-65" value="" style="endArrow=classic;startArrow=classic;html=1;rounded=0;exitX=0.5;exitY=1;exitDx=0;exitDy=0;entryX=0.5;entryY=0;entryDx=0;entryDy=0;dashed=1;" edge="1" parent="1" source="LDeescWShafQm50kmnUS-63" target="LDeescWShafQm50kmnUS-58">
          <mxGeometry width="50" height="50" relative="1" as="geometry">
            <mxPoint x="1120" y="440" as="sourcePoint" />
            <mxPoint x="1170" y="390" as="targetPoint" />
          </mxGeometry>
        </mxCell>
        <mxCell id="LDeescWShafQm50kmnUS-66" value="Oscillator" style="rounded=0;whiteSpace=wrap;html=1;dashed=1;" vertex="1" parent="1">
          <mxGeometry x="1420" y="520" width="120" height="60" as="geometry" />
        </mxCell>
        <mxCell id="LDeescWShafQm50kmnUS-67" value="" style="endArrow=classic;html=1;rounded=0;exitX=0.5;exitY=1;exitDx=0;exitDy=0;dashed=1;" edge="1" parent="1">
          <mxGeometry width="50" height="50" relative="1" as="geometry">
            <mxPoint x="1479.58" y="480" as="sourcePoint" />
            <mxPoint x="1479.58" y="520" as="targetPoint" />
          </mxGeometry>
        </mxCell>
      </root>
    </mxGraphModel>
  </diagram>
</mxfile>
